<mxfile host="app.diagrams.net" modified="2021-05-30T08:42:43.046Z" agent="5.0 (Windows NT 10.0; Win64; x64) AppleWebKit/537.36 (KHTML, like Gecko) Chrome/90.0.4430.212 Safari/537.36" etag="Edi5tWr5EExNJIgY4FCm" version="14.7.3" type="github">
  <diagram id="E0wOPlylbSdXTZ58FT_X" name="Page-1">
    <mxGraphModel dx="1422" dy="762" grid="1" gridSize="10" guides="1" tooltips="1" connect="1" arrows="1" fold="1" page="1" pageScale="1" pageWidth="850" pageHeight="1100" math="0" shadow="0">
      <root>
        <mxCell id="0" />
        <mxCell id="1" parent="0" />
        <mxCell id="rzChoFae1a69LHLvrDEW-9" style="edgeStyle=orthogonalEdgeStyle;rounded=0;orthogonalLoop=1;jettySize=auto;html=1;exitX=1;exitY=0.5;exitDx=0;exitDy=0;entryX=0;entryY=0.5;entryDx=0;entryDy=0;" edge="1" parent="1" source="rzChoFae1a69LHLvrDEW-1" target="rzChoFae1a69LHLvrDEW-2">
          <mxGeometry relative="1" as="geometry" />
        </mxCell>
        <mxCell id="rzChoFae1a69LHLvrDEW-1" value="Program Start" style="ellipse;whiteSpace=wrap;html=1;" vertex="1" parent="1">
          <mxGeometry x="40" y="40" width="120" height="80" as="geometry" />
        </mxCell>
        <mxCell id="rzChoFae1a69LHLvrDEW-10" style="edgeStyle=orthogonalEdgeStyle;rounded=0;orthogonalLoop=1;jettySize=auto;html=1;exitX=1;exitY=0.5;exitDx=0;exitDy=0;" edge="1" parent="1" source="rzChoFae1a69LHLvrDEW-2" target="rzChoFae1a69LHLvrDEW-3">
          <mxGeometry relative="1" as="geometry" />
        </mxCell>
        <mxCell id="rzChoFae1a69LHLvrDEW-2" value="Init Variable" style="rounded=1;whiteSpace=wrap;html=1;" vertex="1" parent="1">
          <mxGeometry x="240" y="50" width="120" height="60" as="geometry" />
        </mxCell>
        <mxCell id="rzChoFae1a69LHLvrDEW-11" style="edgeStyle=orthogonalEdgeStyle;rounded=0;orthogonalLoop=1;jettySize=auto;html=1;exitX=1;exitY=0.5;exitDx=0;exitDy=0;entryX=0;entryY=0.5;entryDx=0;entryDy=0;" edge="1" parent="1" source="rzChoFae1a69LHLvrDEW-3" target="rzChoFae1a69LHLvrDEW-4">
          <mxGeometry relative="1" as="geometry" />
        </mxCell>
        <mxCell id="rzChoFae1a69LHLvrDEW-3" value="Serial Begin&lt;br&gt;(Aktifkan serial)" style="rounded=1;whiteSpace=wrap;html=1;" vertex="1" parent="1">
          <mxGeometry x="440" y="50" width="120" height="60" as="geometry" />
        </mxCell>
        <mxCell id="rzChoFae1a69LHLvrDEW-20" style="edgeStyle=orthogonalEdgeStyle;rounded=0;orthogonalLoop=1;jettySize=auto;html=1;exitX=0.5;exitY=1;exitDx=0;exitDy=0;entryX=0.5;entryY=0;entryDx=0;entryDy=0;" edge="1" parent="1" source="rzChoFae1a69LHLvrDEW-4" target="rzChoFae1a69LHLvrDEW-18">
          <mxGeometry relative="1" as="geometry" />
        </mxCell>
        <mxCell id="rzChoFae1a69LHLvrDEW-4" value="Check Wifi Connection" style="rounded=1;whiteSpace=wrap;html=1;" vertex="1" parent="1">
          <mxGeometry x="640" y="50" width="120" height="60" as="geometry" />
        </mxCell>
        <mxCell id="rzChoFae1a69LHLvrDEW-13" style="edgeStyle=orthogonalEdgeStyle;rounded=0;orthogonalLoop=1;jettySize=auto;html=1;exitX=0;exitY=0.5;exitDx=0;exitDy=0;entryX=1;entryY=0.5;entryDx=0;entryDy=0;" edge="1" parent="1" source="rzChoFae1a69LHLvrDEW-5" target="rzChoFae1a69LHLvrDEW-6">
          <mxGeometry relative="1" as="geometry" />
        </mxCell>
        <mxCell id="rzChoFae1a69LHLvrDEW-5" value="Get Wifi IP Address" style="rounded=1;whiteSpace=wrap;html=1;" vertex="1" parent="1">
          <mxGeometry x="640" y="290" width="120" height="60" as="geometry" />
        </mxCell>
        <mxCell id="rzChoFae1a69LHLvrDEW-15" style="edgeStyle=orthogonalEdgeStyle;rounded=0;orthogonalLoop=1;jettySize=auto;html=1;exitX=0;exitY=0.5;exitDx=0;exitDy=0;" edge="1" parent="1" source="rzChoFae1a69LHLvrDEW-6" target="rzChoFae1a69LHLvrDEW-7">
          <mxGeometry relative="1" as="geometry" />
        </mxCell>
        <mxCell id="rzChoFae1a69LHLvrDEW-6" value="Inisialisasi Sensor Angin" style="rounded=1;whiteSpace=wrap;html=1;" vertex="1" parent="1">
          <mxGeometry x="440" y="290" width="120" height="60" as="geometry" />
        </mxCell>
        <mxCell id="rzChoFae1a69LHLvrDEW-16" style="edgeStyle=orthogonalEdgeStyle;rounded=0;orthogonalLoop=1;jettySize=auto;html=1;exitX=0;exitY=0.5;exitDx=0;exitDy=0;" edge="1" parent="1" source="rzChoFae1a69LHLvrDEW-7" target="rzChoFae1a69LHLvrDEW-8">
          <mxGeometry relative="1" as="geometry" />
        </mxCell>
        <mxCell id="rzChoFae1a69LHLvrDEW-7" value="Inisialisasi Sensor BME" style="rounded=1;whiteSpace=wrap;html=1;" vertex="1" parent="1">
          <mxGeometry x="240" y="290" width="120" height="60" as="geometry" />
        </mxCell>
        <mxCell id="rzChoFae1a69LHLvrDEW-27" style="edgeStyle=orthogonalEdgeStyle;rounded=0;orthogonalLoop=1;jettySize=auto;html=1;exitX=0.5;exitY=1;exitDx=0;exitDy=0;entryX=0.5;entryY=0;entryDx=0;entryDy=0;" edge="1" parent="1" source="rzChoFae1a69LHLvrDEW-8" target="rzChoFae1a69LHLvrDEW-26">
          <mxGeometry relative="1" as="geometry" />
        </mxCell>
        <mxCell id="rzChoFae1a69LHLvrDEW-8" value="Inisialisasi Sensor Suhu DSB" style="rounded=1;whiteSpace=wrap;html=1;" vertex="1" parent="1">
          <mxGeometry x="40" y="290" width="120" height="60" as="geometry" />
        </mxCell>
        <mxCell id="rzChoFae1a69LHLvrDEW-21" style="edgeStyle=orthogonalEdgeStyle;rounded=0;orthogonalLoop=1;jettySize=auto;html=1;exitX=1;exitY=0.5;exitDx=0;exitDy=0;entryX=1;entryY=0.5;entryDx=0;entryDy=0;" edge="1" parent="1" source="rzChoFae1a69LHLvrDEW-18" target="rzChoFae1a69LHLvrDEW-4">
          <mxGeometry relative="1" as="geometry">
            <Array as="points">
              <mxPoint x="800" y="200" />
              <mxPoint x="800" y="80" />
            </Array>
          </mxGeometry>
        </mxCell>
        <mxCell id="rzChoFae1a69LHLvrDEW-25" value="no" style="edgeLabel;html=1;align=center;verticalAlign=middle;resizable=0;points=[];" vertex="1" connectable="0" parent="rzChoFae1a69LHLvrDEW-21">
          <mxGeometry x="-0.1" y="-2" relative="1" as="geometry">
            <mxPoint as="offset" />
          </mxGeometry>
        </mxCell>
        <mxCell id="rzChoFae1a69LHLvrDEW-22" style="edgeStyle=orthogonalEdgeStyle;rounded=0;orthogonalLoop=1;jettySize=auto;html=1;exitX=0.5;exitY=1;exitDx=0;exitDy=0;entryX=0.5;entryY=0;entryDx=0;entryDy=0;" edge="1" parent="1" source="rzChoFae1a69LHLvrDEW-18" target="rzChoFae1a69LHLvrDEW-5">
          <mxGeometry relative="1" as="geometry" />
        </mxCell>
        <mxCell id="rzChoFae1a69LHLvrDEW-18" value="if Conected" style="rhombus;whiteSpace=wrap;html=1;" vertex="1" parent="1">
          <mxGeometry x="660" y="160" width="80" height="80" as="geometry" />
        </mxCell>
        <mxCell id="rzChoFae1a69LHLvrDEW-24" value="yes" style="text;html=1;align=center;verticalAlign=middle;resizable=0;points=[];autosize=1;strokeColor=none;" vertex="1" parent="1">
          <mxGeometry x="675" y="250" width="30" height="20" as="geometry" />
        </mxCell>
        <mxCell id="rzChoFae1a69LHLvrDEW-29" style="edgeStyle=orthogonalEdgeStyle;rounded=0;orthogonalLoop=1;jettySize=auto;html=1;exitX=0.5;exitY=1;exitDx=0;exitDy=0;entryX=0.5;entryY=0;entryDx=0;entryDy=0;" edge="1" parent="1" source="rzChoFae1a69LHLvrDEW-26" target="rzChoFae1a69LHLvrDEW-28">
          <mxGeometry relative="1" as="geometry" />
        </mxCell>
        <mxCell id="rzChoFae1a69LHLvrDEW-26" value="check if internet still connected" style="rounded=1;whiteSpace=wrap;html=1;" vertex="1" parent="1">
          <mxGeometry x="40" y="410" width="120" height="60" as="geometry" />
        </mxCell>
        <mxCell id="rzChoFae1a69LHLvrDEW-32" value="yes" style="edgeStyle=orthogonalEdgeStyle;rounded=0;orthogonalLoop=1;jettySize=auto;html=1;exitX=1;exitY=0.5;exitDx=0;exitDy=0;entryX=0;entryY=0.5;entryDx=0;entryDy=0;" edge="1" parent="1" source="rzChoFae1a69LHLvrDEW-28" target="rzChoFae1a69LHLvrDEW-31">
          <mxGeometry relative="1" as="geometry" />
        </mxCell>
        <mxCell id="rzChoFae1a69LHLvrDEW-40" value="no" style="edgeStyle=orthogonalEdgeStyle;rounded=0;orthogonalLoop=1;jettySize=auto;html=1;exitX=0.5;exitY=1;exitDx=0;exitDy=0;entryX=0.5;entryY=0;entryDx=0;entryDy=0;" edge="1" parent="1" source="rzChoFae1a69LHLvrDEW-28" target="rzChoFae1a69LHLvrDEW-39">
          <mxGeometry relative="1" as="geometry" />
        </mxCell>
        <mxCell id="rzChoFae1a69LHLvrDEW-28" value="connected" style="rhombus;whiteSpace=wrap;html=1;" vertex="1" parent="1">
          <mxGeometry x="60" y="520" width="80" height="80" as="geometry" />
        </mxCell>
        <mxCell id="rzChoFae1a69LHLvrDEW-34" style="edgeStyle=orthogonalEdgeStyle;rounded=0;orthogonalLoop=1;jettySize=auto;html=1;exitX=1;exitY=0.5;exitDx=0;exitDy=0;entryX=0;entryY=0.5;entryDx=0;entryDy=0;" edge="1" parent="1" source="rzChoFae1a69LHLvrDEW-31" target="rzChoFae1a69LHLvrDEW-33">
          <mxGeometry relative="1" as="geometry" />
        </mxCell>
        <mxCell id="rzChoFae1a69LHLvrDEW-31" value="check if Server Online" style="rounded=1;whiteSpace=wrap;html=1;" vertex="1" parent="1">
          <mxGeometry x="240" y="530" width="120" height="60" as="geometry" />
        </mxCell>
        <mxCell id="rzChoFae1a69LHLvrDEW-33" value="online" style="rhombus;whiteSpace=wrap;html=1;" vertex="1" parent="1">
          <mxGeometry x="460" y="520" width="80" height="80" as="geometry" />
        </mxCell>
        <mxCell id="rzChoFae1a69LHLvrDEW-41" style="edgeStyle=orthogonalEdgeStyle;rounded=0;orthogonalLoop=1;jettySize=auto;html=1;exitX=0;exitY=0.5;exitDx=0;exitDy=0;entryX=0;entryY=0.5;entryDx=0;entryDy=0;" edge="1" parent="1" source="rzChoFae1a69LHLvrDEW-39" target="rzChoFae1a69LHLvrDEW-26">
          <mxGeometry relative="1" as="geometry" />
        </mxCell>
        <mxCell id="rzChoFae1a69LHLvrDEW-39" value="try connect to wifi" style="rounded=1;whiteSpace=wrap;html=1;" vertex="1" parent="1">
          <mxGeometry x="40" y="650" width="120" height="60" as="geometry" />
        </mxCell>
      </root>
    </mxGraphModel>
  </diagram>
</mxfile>
